<?xml version="1.0" standalone="no"?>
<!DOCTYPE svg PUBLIC "-//W3C//DTD SVG 20010904//EN"
 "http://www.w3.org/TR/2001/REC-SVG-20010904/DTD/svg10.dtd">
<svg version="1.0" xmlns="http://www.w3.org/2000/svg"
 width="1009.133009pt" height="1009.335244pt" viewBox="0 0 1009.133009 1009.335244"
 preserveAspectRatio="xMidYMid meet">
<metadata>
Created by potrace 1.12, written by Peter Selinger 2001-2015
</metadata>
<g transform="translate(-7.255478,1016.610174) scale(0.100000,-0.100000)"
fill="#931020" stroke="#fff">
<path d="M4885 10164 c-533 -33 -948 -113 -1417 -273 -568 -195 -1097 -494
-1583 -895 -151 -125 -511 -484 -636 -636 -272 -328 -496 -675 -675 -1045
-669 -1383 -669 -3008 0 -4390 390 -804 1001 -1507 1741 -2002 1280 -856 2885
-1080 4355 -607 512 164 1055 444 1472 760 382 290 756 666 1034 1039 495 667
822 1458 938 2276 40 279 50 426 50 729 0 303 -10 450 -50 729 -136 954 -560
1875 -1197 2596 -873 989 -2042 1583 -3357 1705 -120 11 -571 20 -675 14z
m756 -394 c96 -11 206 -26 245 -33 l69 -12 3 -358 2 -357 -510 0 -510 0 0
-885 0 -885 -22 -4 c-13 -2 -81 -13 -153 -24 -152 -24 -303 -66 -441 -122 -78
-32 -100 -38 -110 -28 -15 18 -696 1200 -692 1203 2 1 200 116 441 255 316
183 437 257 433 267 -3 8 -114 202 -246 430 -132 229 -237 420 -233 424 12 11
307 75 453 98 123 20 367 47 485 55 158 10 616 -4 786 -24z m823 -166 c405
-120 840 -322 1206 -562 141 -92 367 -258 442 -324 l37 -33 -180 -310 c-99
-170 -184 -309 -190 -307 -5 1 -85 46 -177 99 -681 394 -697 403 -708 390 -6
-6 -201 -343 -434 -747 -232 -404 -428 -741 -434 -748 -10 -10 -32 -4 -110 28
-138 56 -289 98 -441 122 -71 11 -140 22 -152 24 l-23 4 0 700 0 700 515 0
515 0 0 500 c0 275 3 500 7 500 3 0 61 -16 127 -36z m-2730 -404 c150 -259
164 -286 148 -298 -9 -7 -201 -119 -427 -249 -225 -130 -416 -241 -423 -248
-12 -10 62 -145 422 -767 239 -415 437 -761 440 -769 3 -9 -23 -34 -72 -69
-98 -71 -289 -260 -376 -373 l-68 -88 -32 19 c-17 10 -291 168 -608 351 l-576
333 33 56 c260 447 474 825 471 831 -3 4 -196 117 -430 252 l-425 244 62 63
c34 35 112 107 172 159 420 364 906 657 1400 843 l100 38 12 -21 c6 -12 86
-150 177 -307z m4895 -986 c364 -414 646 -873 845 -1377 25 -64 46 -123 46
-131 0 -13 -596 -366 -617 -366 -4 0 -122 198 -262 440 l-253 441 -42 -24
c-29 -18 -1003 -580 -1478 -853 -3 -2 -37 35 -74 83 -87 113 -254 280 -366
367 -81 62 -87 69 -76 89 10 20 679 1180 682 1184 1 1 199 -113 441 -253 242
-139 442 -254 445 -254 3 0 118 196 255 435 l250 434 49 -47 c27 -26 96 -101
155 -168z m-6739 -259 c151 -87 276 -159 278 -160 1 -1 -113 -201 -253 -445
-141 -243 -255 -443 -253 -445 2 -2 341 -198 753 -435 413 -238 756 -438 763
-445 11 -10 7 -27 -21 -96 -71 -171 -125 -376 -142 -534 -4 -33 -9 -68 -11
-77 -5 -17 -47 -18 -705 -18 l-699 0 0 515 0 515 -500 0 c-275 0 -500 2 -500
4 0 20 83 282 127 401 177 477 429 921 751 1323 l74 93 32 -19 c17 -10 155
-90 306 -177z m3050 -1229 l0 -133 -92 -17 c-51 -10 -139 -33 -196 -52 -57
-18 -105 -34 -107 -34 -4 0 -135 227 -135 234 0 6 148 62 217 82 89 26 224 53
271 53 l42 1 0 -134z m610 95 c107 -27 280 -87 280 -97 0 -7 -131 -234 -135
-234 -2 0 -50 16 -107 34 -57 19 -145 42 -195 52 l-93 17 0 135 0 135 68 -7
c37 -3 119 -19 182 -35z m2953 -538 c136 -236 251 -434 255 -440 6 -9 66 21
212 105 113 65 308 178 434 251 126 72 233 128 237 124 11 -11 75 -306 98
-453 43 -267 55 -423 55 -745 0 -318 -13 -504 -52 -740 l-17 -100 -362 -3
-363 -2 0 510 0 510 -882 2 -882 3 -13 99 c-21 173 -63 332 -136 515 -23 58
-37 106 -32 108 6 2 273 156 595 342 322 187 590 340 596 340 6 1 122 -191
257 -426z m-4349 142 c36 -63 66 -117 66 -120 0 -4 -15 -18 -32 -33 -64 -52
-170 -157 -206 -204 -20 -27 -39 -48 -43 -48 -3 0 -59 30 -123 66 l-116 66 19
27 c53 74 180 207 267 280 53 44 98 81 100 81 1 0 32 -52 68 -115z m2137 2
c48 -42 123 -119 168 -173 73 -88 79 -98 63 -109 -33 -23 -214 -125 -221 -125
-4 0 -23 21 -43 48 -36 47 -142 152 -205 204 -18 15 -33 29 -33 33 0 3 30 57
66 120 l66 115 27 -19 c14 -10 65 -53 112 -94z m-5061 -977 l0 -510 885 0 885
0 4 -22 c3 -13 10 -61 16 -108 21 -158 71 -339 137 -499 19 -46 30 -88 26 -92
-12 -12 -1205 -700 -1208 -697 -1 2 -115 199 -253 438 -160 276 -257 435 -266
434 -8 -1 -178 -96 -378 -212 -468 -270 -475 -274 -481 -265 -10 16 -77 330
-96 453 -44 273 -55 422 -55 755 1 323 9 447 51 723 l16 112 359 0 358 0 0
-510z m2406 314 c63 -36 114 -67 114 -69 0 -2 -16 -50 -34 -107 -19 -57 -42
-145 -52 -195 l-17 -93 -135 0 -135 0 7 69 c3 39 19 121 35 183 29 112 88 278
98 278 3 0 57 -30 119 -66z m3127 -26 c43 -115 85 -280 94 -370 l6 -68 -135 0
-135 0 -17 90 c-9 50 -32 138 -51 197 -20 59 -32 110 -28 114 12 10 217 129
224 129 4 0 22 -42 42 -92z m-3099 -888 c9 -50 32 -138 51 -196 19 -59 35
-108 35 -109 0 -5 -232 -136 -235 -133 -2 2 -17 39 -35 82 -41 104 -88 289
-96 377 l-7 69 135 0 135 0 17 -90z m3192 23 c-8 -89 -56 -277 -96 -378 -17
-44 -33 -81 -35 -83 -4 -4 -235 129 -235 135 0 2 16 51 35 108 19 57 42 144
51 194 l17 91 135 0 135 0 -7 -67z m1774 -448 l0 -515 506 0 c477 0 505 -1
500 -17 -186 -650 -448 -1170 -843 -1671 -100 -127 -106 -132 -126 -119 -12 8
-146 85 -297 172 -151 87 -283 163 -292 169 -15 11 11 60 237 451 195 337 251
443 242 451 -7 6 -343 202 -747 434 -404 233 -741 429 -748 435 -11 10 -7 27
21 96 69 166 128 389 142 539 4 36 8 71 10 78 4 9 152 12 700 12 l695 0 0
-515z m-4621 -282 c34 -40 94 -100 134 -134 39 -34 73 -66 75 -70 2 -4 -27
-60 -64 -123 l-66 -116 -42 32 c-95 73 -192 166 -266 256 -44 52 -77 98 -74
101 15 16 221 130 230 128 6 -1 38 -35 73 -74z m2416 11 l115 -66 -47 -61
c-61 -80 -201 -219 -279 -279 l-62 -47 -66 115 c-37 63 -66 119 -64 123 2 4
36 36 76 70 41 35 101 96 135 137 34 40 66 73 70 74 4 0 59 -30 122 -66z
m-4841 -690 c130 -225 242 -418 249 -428 13 -17 39 -4 373 189 197 114 537
310 754 436 217 125 402 230 410 233 10 3 33 -20 70 -72 71 -99 283 -311 382
-382 47 -34 75 -60 72 -69 -2 -7 -158 -280 -345 -605 -188 -325 -343 -594
-345 -598 -2 -3 -203 109 -446 249 -397 230 -443 254 -454 238 -7 -9 -120
-203 -251 -430 l-238 -414 -53 52 c-226 219 -547 650 -726 972 -112 201 -222
436 -296 635 l-28 75 307 177 c233 135 309 174 317 165 6 -7 118 -197 248
-423z m5866 99 c311 -180 577 -334 592 -343 l26 -16 -254 -439 c-140 -242
-254 -442 -254 -445 0 -3 196 -117 436 -255 l435 -250 -98 -94 c-389 -373
-888 -699 -1398 -914 -178 -74 -233 -93 -244 -81 -14 15 -351 600 -351 610 0
5 198 123 440 263 l440 254 -19 31 c-10 17 -209 361 -442 765 -363 630 -420
735 -406 743 96 53 355 303 447 431 37 51 60 74 70 71 8 -3 269 -152 580 -331z
m-2797 153 c56 -18 144 -42 195 -51 l92 -18 0 -133 0 -134 -34 0 c-36 0 -207
33 -266 51 -74 23 -230 81 -230 86 0 9 132 233 137 233 2 0 50 -15 106 -34z
m1111 -80 c36 -62 66 -116 66 -119 0 -5 -156 -63 -230 -86 -59 -18 -230 -51
-266 -51 l-34 0 0 134 0 133 93 18 c52 10 136 32 188 50 52 18 99 33 106 34 6
0 41 -50 77 -113z m-1438 -485 c180 -71 339 -113 510 -134 l99 -13 3 -697 2
-697 -515 0 -515 0 0 -505 0 -505 -27 6 c-16 4 -82 24 -148 45 -578 182 -1060
438 -1532 813 l-113 89 19 31 c10 17 90 155 176 306 87 151 159 276 160 278 1
1 201 -112 445 -253 244 -141 444 -254 445 -253 2 2 195 336 430 743 436 757
453 785 459 785 2 0 48 -18 102 -39z m2042 -560 c188 -326 342 -596 342 -600
0 -3 -198 -121 -440 -260 -242 -140 -440 -255 -440 -256 0 -1 113 -197 250
-435 138 -238 248 -435 245 -438 -11 -12 -264 -69 -430 -97 -339 -58 -738 -78
-1075 -55 -131 9 -394 40 -495 58 l-40 7 -3 363 -2 362 510 0 510 0 2 882 3
882 99 13 c171 21 348 68 516 137 47 19 90 34 95 32 6 -1 164 -269 353 -595z"/>
</g>
</svg>
